<svg width="20" height="20" viewBox="0 0 20 20" fill="none" xmlns="http://www.w3.org/2000/svg">
<path d="M19.4579 9.43669C19.8004 9.09252 19.9995 8.62589 19.9995 8.12504C19.9995 7.40256 19.5862 6.76757 18.9712 6.45758C19.0987 6.20258 19.1662 5.92009 19.1662 5.6251C19.1662 4.90262 18.7521 4.26681 18.1371 3.95764C18.3271 3.57765 18.3829 3.14016 18.2871 2.70599C18.1004 1.86183 17.3063 1.2502 16.3988 1.2502H8.74979C8.17063 1.2502 7.23733 1.4377 6.54403 1.79437C6.25403 0.991887 5.48405 0.416901 4.58325 0.416901H2.08331C0.934158 0.416901 0 1.35102 0 2.50017V9.16669C0 10.3158 0.934158 11.25 2.08327 11.25H6.24985C6.47985 11.25 6.66652 11.0633 6.66652 10.8333V10.6741L6.7657 10.7241L9.16646 15.924V18.7498C9.16646 18.8764 9.22396 18.9964 9.32228 19.0756C9.34896 19.0956 9.96809 19.5831 10.8331 19.5831C11.7972 19.5831 13.333 18.0573 13.333 16.2498C13.333 15.1098 12.9247 13.6907 12.6697 12.9166H17.8171C18.9387 12.9166 19.8929 12.0866 19.9912 11.0274C20.0453 10.4333 19.847 9.8625 19.4579 9.43669ZM18.5671 9.7725C18.9762 10.025 19.2045 10.4767 19.1604 10.9517C19.1021 11.5858 18.5121 12.0833 17.8171 12.0833H12.083C11.9464 12.0833 11.818 12.1508 11.7397 12.2633C11.6622 12.3766 11.6447 12.5208 11.6939 12.6483C11.7014 12.6691 12.4997 14.7832 12.4997 16.2499C12.4997 17.6149 11.2897 18.7498 10.8331 18.7498C10.4739 18.7498 10.1723 18.619 9.99977 18.524V15.8333C9.99977 15.7733 9.98645 15.7133 9.96059 15.6583L7.46065 10.2417C7.42147 10.1567 7.35397 10.0867 7.26897 10.0442L6.43567 9.62754C6.30649 9.56254 6.15236 9.57086 6.03068 9.64504C5.90818 9.72172 5.83318 9.85586 5.83318 10V10.4167H2.08327C1.39411 10.4167 0.833301 9.8559 0.833301 9.16673V2.50017C0.833301 1.81101 1.39411 1.2502 2.08327 1.2502H4.58321C5.27238 1.2502 5.83318 1.81101 5.83318 2.50017C5.83318 2.66849 5.93486 2.82098 6.09068 2.88516C6.24567 2.94848 6.42485 2.91348 6.54485 2.79516C6.93816 2.40099 8.07313 2.0835 8.74979 2.0835H16.3988C16.9188 2.0835 17.3705 2.42017 17.4729 2.8868C17.5554 3.25929 17.4454 3.62097 17.1713 3.8801C17.053 3.99092 17.0096 4.16009 17.0613 4.31509C17.113 4.46927 17.2488 4.57926 17.4096 4.59758C17.9354 4.65758 18.3329 5.09925 18.3329 5.62506C18.3329 5.91173 18.2154 6.18005 18.0046 6.38004C17.8863 6.49086 17.8429 6.66003 17.8946 6.81503C17.9463 6.96921 18.0821 7.0792 18.2429 7.09752C18.7687 7.15752 19.1662 7.59919 19.1662 8.125C19.1662 8.51331 18.9479 8.86666 18.5954 9.04666C18.4621 9.11584 18.3762 9.25083 18.3696 9.40165C18.3637 9.55169 18.4396 9.69332 18.5671 9.7725Z" fill="white"/>
<path d="M6.24986 2.0835C6.01987 2.0835 5.83319 2.27017 5.83319 2.50017V9.99999C5.83319 10.23 6.01987 10.4167 6.24986 10.4167C6.47986 10.4167 6.66653 10.23 6.66653 9.99999V2.50017C6.66653 2.27017 6.47986 2.0835 6.24986 2.0835Z" fill="white"/>
</svg>
