<svg width="20" height="20" viewBox="0 0 20 20" fill="none" xmlns="http://www.w3.org/2000/svg">
<path d="M20 11.875C20 11.3742 19.8008 10.9075 19.4575 10.5633C19.8467 10.1375 20.045 9.56665 19.9908 8.97251C19.8933 7.91333 18.9391 7.08333 17.8175 7.08333H12.67C12.925 6.30915 13.3333 4.89001 13.3333 3.75001C13.3333 1.94251 11.7975 0.416687 10.8333 0.416687C9.96832 0.416687 9.34914 0.904187 9.32332 0.924187C9.22414 1.00337 9.16664 1.12337 9.16664 1.25001V4.07583L6.76582 9.27501L6.66664 9.32583V9.16665C6.66664 8.93665 6.47996 8.74997 6.24996 8.74997H2.08332C0.93418 8.75001 0 9.68419 0 10.8333V17.5C0 18.6492 0.93418 19.5833 2.08332 19.5833H4.58332C5.48414 19.5833 6.25414 19.0083 6.54414 18.2058C7.2375 18.5625 8.17082 18.75 8.75 18.75H16.3992C17.3067 18.75 18.1009 18.1383 18.2875 17.295C18.3833 16.86 18.3275 16.4225 18.1375 16.0425C18.7525 15.7333 19.1667 15.0975 19.1667 14.375C19.1667 14.08 19.0992 13.7975 18.9717 13.5425C19.5867 13.2325 20 12.5975 20 11.875ZM18.2425 12.9033C18.0817 12.9225 17.9458 13.0316 17.8942 13.1858C17.8434 13.34 17.8859 13.5091 18.0042 13.6208C18.2159 13.82 18.3334 14.0883 18.3334 14.375C18.3334 14.9008 17.9359 15.3425 17.41 15.4033C17.2492 15.4225 17.1134 15.5316 17.0617 15.6858C17.0109 15.84 17.0534 16.0091 17.1717 16.1208C17.4459 16.3791 17.5559 16.7416 17.4734 17.115C17.3709 17.58 16.9192 17.9167 16.3992 17.9167H8.75C8.07332 17.9167 6.93832 17.5992 6.545 17.205C6.42582 17.0867 6.24582 17.0517 6.09082 17.115C5.935 17.1792 5.83332 17.3317 5.83332 17.5C5.83332 18.1892 5.2725 18.75 4.58332 18.75H2.08332C1.39414 18.75 0.83332 18.1892 0.83332 17.5V10.8333C0.83332 10.1441 1.39414 9.58333 2.08332 9.58333H5.83332V10C5.83332 10.1442 5.90832 10.2783 6.03164 10.355C6.15332 10.4283 6.30664 10.4358 6.43664 10.3725L7.26996 9.95583C7.35414 9.91415 7.42164 9.84415 7.46164 9.75833L9.96164 4.34165C9.98664 4.28665 9.99996 4.22665 9.99996 4.16665V1.47583C10.1733 1.38001 10.4742 1.25001 10.8333 1.25001C11.29 1.25001 12.5 2.38501 12.5 3.75001C12.5 5.21669 11.7017 7.33083 11.6942 7.35169C11.6459 7.47919 11.6625 7.62337 11.74 7.73669C11.8183 7.84919 11.9467 7.91669 12.0833 7.91669H17.8175C18.5125 7.91669 19.1025 8.41419 19.1608 9.04919C19.205 9.52419 18.9766 9.97587 18.5675 10.2284C18.44 10.3067 18.3642 10.4484 18.37 10.5992C18.3758 10.75 18.4625 10.885 18.5958 10.9542C18.9483 11.1334 19.1666 11.4867 19.1666 11.875C19.1667 12.4008 18.7692 12.8425 18.2425 12.9033Z" fill="white"/>
<path d="M6.24999 9.58331C6.01999 9.58331 5.83331 9.76999 5.83331 9.99999V17.5C5.83331 17.73 6.01999 17.9167 6.24999 17.9167C6.47999 17.9167 6.66667 17.73 6.66667 17.5V9.99999C6.66667 9.76999 6.47999 9.58331 6.24999 9.58331Z" fill="white"/>
</svg>
