<svg id="Capa_1" enable-background="new 0 0 511.998 511.998" height="512" viewBox="0 0 511.998 511.998" width="512" xmlns="http://www.w3.org/2000/svg"><g><g><path d="m328.075 100.888s107.509-35.992 176.423 32.921c0 0-28.556 68.004-85.031 68.004" fill="#934d36"/><path d="m362.467 138.883 57 62.93c56.47 0 85.03-68 85.03-68s-.01 0-.02-.01c-1.24-.45-64.09-23.22-113.619 3.34z" fill="#f1d0a5"/><path d="m370.506 24.806-4.92 100.88-70.73-18.72 11.54-22.79 34.09-67.32c3.38-6.68 10.98-10.09 18.22-8.17s12.16 8.63 11.8 16.12z" fill="#f6f1f1"/><path d="m358.706 8.686c-9.51-1.85-23.7 83.339-23.7 83.339l-28.61-7.85 34.09-67.32c3.38-6.679 10.98-10.089 18.22-8.169z" fill="#dfdfdf"/><path d="m183.921 100.892s-107.509-35.992-176.423 32.921c0 0 28.556 68.004 85.031 68.004" fill="#934d36"/><path d="m149.529 138.887-57 62.93c-56.47 0-85.03-68-85.03-68s.01 0 .02-.01c1.24-.45 64.09-23.22 113.619 3.34z" fill="#f1d0a5"/><path d="m217.137 106.976-70.72 18.71-.61-12.57-4.31-88.31c-.37-7.48 4.55-14.2 11.79-16.12 3.14-.83 6.36-.66 9.26.35 3.79 1.31 7.05 4.05 8.96 7.83z" fill="#f6f1f1"/><path d="m179.817 116.405-34.01-3.29-4.31-88.31c-.37-7.48 4.55-14.2 11.79-16.12 3.14-.83 6.36-.66 9.26.35-16.43-2.199 17.27 107.37 17.27 107.37z" fill="#dfdfdf"/><path d="m424.636 246.895c0 26.96-5.39 52.55-15.06 75.589-26.52 63.23-85.31 107.189-153.579 107.189-93.14 0-168.639-81.839-168.639-182.779 0-100.95 75.5-182.779 168.639-182.779 13.13 0 25.9 1.63 38.17 4.7 74.749 18.741 130.469 91.36 130.469 178.08z" fill="#aa593d"/><path d="m424.636 246.895c0 26.96-5.39 52.55-15.06 75.589l-94.76-94.759c-38.69-25.81-54.4-125.16-20.65-158.909 74.75 18.74 130.47 91.359 130.47 178.079z" fill="#f6f1f1"/><path d="m255.989 429.67c-93.13 0-168.629-81.839-168.629-182.779 0-100.95 75.5-182.779 168.629-182.779-40.04 0-72.5 81.829-72.5 182.779 0 100.939 32.46 182.779 72.5 182.779z" fill="#934d36"/><ellipse cx="255.997" cy="362.22" fill="#f1d0a5" rx="187.552" ry="141.614"/><path d="m254.753 503.819c-103.01-.5-186.309-63.7-186.309-141.599 0-77.91 83.3-141.109 186.309-141.609-52.27.98-94.43 64-94.43 141.609.001 77.599 42.161 140.619 94.43 141.599z" fill="#f1b986"/><g fill="#4d5961"><ellipse cx="204.12" cy="366.923" rx="21.283" ry="37.244"/><ellipse cx="307.873" cy="366.923" rx="21.283" ry="37.244"/></g></g><g><ellipse cx="157.646" cy="188.706" rx="19.039" ry="28.433"/><ellipse cx="354.347" cy="188.706" rx="19.039" ry="28.433"/><path d="m175.338 366.923c0 25.09 12.643 44.745 28.782 44.745s28.783-19.654 28.783-44.745-12.643-44.744-28.783-44.744-28.782 19.654-28.782 44.744zm37.319-22.614c3.333 5.833 5.246 14.076 5.246 22.614 0 8.539-1.912 16.781-5.246 22.615-2.551 4.464-5.743 7.13-8.537 7.13s-5.986-2.665-8.537-7.129c-3.333-5.834-5.245-14.077-5.245-22.615s1.912-16.781 5.245-22.615c2.551-4.464 5.743-7.129 8.537-7.129s5.987 2.665 8.537 7.129z"/><path d="m279.09 366.923c0 25.09 12.643 44.745 28.783 44.745s28.783-19.654 28.783-44.745-12.643-44.744-28.783-44.744-28.783 19.654-28.783 44.744zm37.32-22.614c3.333 5.833 5.246 14.076 5.246 22.614 0 8.539-1.912 16.781-5.246 22.615-2.551 4.464-5.743 7.13-8.537 7.13s-5.986-2.666-8.537-7.13c-3.333-5.833-5.246-14.076-5.246-22.615 0-8.538 1.912-16.781 5.246-22.614 2.551-4.464 5.743-7.13 8.537-7.13s5.986 2.666 8.537 7.13z"/><path d="m509.801 128.509c-40.955-40.965-94.312-46.965-134.705-43.826l2.9-59.517c.526-10.941-6.779-20.921-17.369-23.729-10.599-2.811-21.885 2.25-26.833 12.031l-26.086 51.517c-16.359-5.438-33.723-8.373-51.71-8.373-17.992 0-35.36 2.936-51.722 8.376l-26.075-51.504c-4.941-9.78-16.224-14.846-26.837-12.048-10.6 2.811-17.899 12.795-17.358 23.735l2.902 59.541c-15.378-1.186-30.302-.868-44.463.99-4.107.539-6.999 4.305-6.46 8.412.495 3.776 3.719 6.525 7.427 6.525.325 0 .654-.021.985-.065 13.71-1.799 28.231-2.055 43.246-.771l.293 6.004c-6.879 6.725-13.259 14.031-19.088 21.839-27.238-12.498-56.97-12.234-79.246-9.091 8.687-5.019 18.037-9.097 28.006-12.19 3.956-1.228 6.168-5.43 4.94-9.386s-5.426-6.167-9.386-4.94c-23.574 7.314-44.086 19.587-60.968 36.479-2.153 2.154-2.79 5.397-1.61 8.206.309.736 7.744 18.242 22.494 35.903 17.632 21.112 38.332 33.466 60.334 36.137-2.329 12.322-3.554 25.073-3.554 38.127 0 14.857 1.606 29.61 4.737 43.919-15.443 21.625-23.649 46.009-23.649 71.411 0 40.235 20.567 77.923 57.912 106.121 36.717 27.724 85.42 42.992 137.139 42.992 55.335 0 108.247-18.021 145.167-49.441 3.154-2.684 3.535-7.418.851-10.572-2.685-3.155-7.418-3.535-10.572-.851-34.25 29.147-83.617 45.864-135.445 45.864-99.28 0-180.05-60.163-180.05-134.112 0-73.95 80.77-134.113 180.05-134.113s180.05 60.163 180.05 134.113c0 23.91-8.592 47.392-24.848 67.909-2.572 3.247-2.026 7.964 1.221 10.536 3.247 2.573 7.964 2.025 10.536-1.221 18.377-23.195 28.091-49.898 28.091-77.224 0-25.402-8.206-49.785-23.648-71.409 3.131-14.309 4.737-29.062 4.737-43.922 0-13.057-1.226-25.811-3.556-38.135 22.001-2.673 42.701-15.026 60.333-36.137 14.751-17.662 22.188-35.167 22.498-35.903 1.18-2.809.544-6.053-1.611-8.207zm-37.323-9.947c-22.286-3.154-52.058-3.435-79.331 9.08-5.826-7.804-12.203-15.108-19.079-21.83l.293-6.017c29.019-2.496 65.603-.075 98.117 18.767zm-125.3-98.32c1.772-3.502 5.813-5.313 9.606-4.307 3.799 1.007 6.419 4.587 6.231 8.505l-3.349 68.719c-11.633-9.18-24.341-16.858-37.881-22.769zm-191.978-4.304c3.803-1.003 7.845.81 9.616 4.316l25.386 50.142c-13.534 5.909-26.235 13.584-37.864 22.76l-3.349-68.72c-.195-3.919 2.422-7.493 6.211-8.498zm-120.362 147.366c-7.792-9.274-13.398-18.65-16.744-24.914 16.833-4.637 57.222-12.931 92.112 1.841-10.261 16.316-18.235 34.437-23.43 53.821-18.79-1.74-36.237-12.06-51.938-30.748zm84.021 92.796c-8.074 6.097-15.36 12.638-21.828 19.552-1.435-9.465-2.172-19.087-2.172-28.762 0-96.649 72.287-175.279 161.139-175.279 8.468 0 16.785.719 24.904 2.095-10.462 17.018-14.765 42.117-11.892 71.166 2.75 27.803 11.535 53.211 23.839 70.881-12.024-1.745-24.348-2.646-36.852-2.646-51.718.001-100.421 15.269-137.138 42.993zm274.277 0c-21.545-16.268-47.22-28.24-75.206-35.362-17.004-12.205-30.596-43.012-33.992-77.342-2.798-28.286 1.948-52.531 12.74-66.122 69.222 19.657 120.459 88.248 120.459 169.616 0 9.676-.737 19.299-2.172 28.764-6.467-6.914-13.754-13.457-21.829-19.554zm32.082-62.061c-5.195-19.381-13.169-37.499-23.428-53.812 34.888-14.771 75.278-6.478 92.112-1.841-8.541 15.958-31.822 52.172-68.684 55.653z"/></g></g></svg>