<svg width="25" height="25" viewBox="0 0 25 25" fill="none" xmlns="http://www.w3.org/2000/svg">
<path d="M24.8411 12.0138C24.6178 11.7082 19.2963 4.53299 12.4999 4.53299C5.70343 4.53299 0.381739 11.7082 0.158643 12.0135C-0.052881 12.3033 -0.052881 12.6964 0.158643 12.9863C0.381739 13.2918 5.70343 20.4671 12.4999 20.4671C19.2963 20.4671 24.6178 13.2917 24.8411 12.9865C25.0529 12.6967 25.0529 12.3033 24.8411 12.0138ZM12.4999 18.8187C7.49357 18.8187 3.15757 14.0563 1.87403 12.4995C3.15591 10.9412 7.48283 6.18133 12.4999 6.18133C17.5059 6.18133 21.8416 10.9429 23.1257 12.5006C21.8438 14.0588 17.5169 18.8187 12.4999 18.8187Z" fill="white"/>
<path d="M12.4999 7.55493C9.77322 7.55493 7.55481 9.77334 7.55481 12.5C7.55481 15.2267 9.77322 17.4451 12.4999 17.4451C15.2265 17.4451 17.445 15.2267 17.445 12.5C17.445 9.77334 15.2265 7.55493 12.4999 7.55493ZM12.4999 15.7967C10.682 15.7967 9.2032 14.3178 9.2032 12.5C9.2032 10.6822 10.6821 9.20332 12.4999 9.20332C14.3177 9.20332 15.7966 10.6822 15.7966 12.5C15.7966 14.3178 14.3178 15.7967 12.4999 15.7967Z" fill="white"/>
</svg>
